<mxfile host="65bd71144e">
    <diagram id="yQ1NKh-PU761OOfQEgjS" name="Page-1">
        <mxGraphModel dx="1881" dy="907" grid="0" gridSize="10" guides="1" tooltips="1" connect="1" arrows="1" fold="1" page="1" pageScale="1" pageWidth="1400" pageHeight="850" math="0" shadow="0">
            <root>
                <mxCell id="0"/>
                <mxCell id="1" parent="0"/>
                <mxCell id="2" value="SQL" style="shape=cylinder3;whiteSpace=wrap;html=1;boundedLbl=1;backgroundOutline=1;size=15;" parent="1" vertex="1">
                    <mxGeometry x="175" y="442" width="90" height="80" as="geometry"/>
                </mxCell>
                <mxCell id="3" value="&lt;h1&gt;Script Variables&lt;/h1&gt;&lt;p&gt;SQL: Data from BigQuery SQL&lt;/p&gt;&lt;p&gt;BUCKET_ANOMALY: GCS Bucket to store anomaly images and html&lt;/p&gt;&lt;p&gt;DATE_NAME: date column from SQL&lt;/p&gt;&lt;p&gt;METRIC: metric column from SQL&lt;/p&gt;&lt;p&gt;THRESHOLD: daily metric quantile floor float value&lt;/p&gt;&lt;p&gt;CHART_TITLE: title of vizualization&lt;/p&gt;&lt;p&gt;ANOMALY_IMAGE_NAME: day/type name of anomaly. Used to title png and html files.&lt;/p&gt;&lt;p&gt;EMAIL_SUBJECT: Subject in emailed alert.&lt;/p&gt;&lt;p&gt;IMG_PATH = Path to png in GCS. This will attach to Slack email.&lt;/p&gt;" style="text;html=1;strokeColor=none;fillColor=none;spacing=5;spacingTop=-20;whiteSpace=wrap;overflow=hidden;rounded=0;fontStyle=0" parent="1" vertex="1">
                    <mxGeometry x="990" y="20" width="290" height="380" as="geometry"/>
                </mxCell>
                <mxCell id="5" value="&lt;h1&gt;Single Metric Anomaly Alert&lt;/h1&gt;&lt;p&gt;Input: Daily metric data from BigQuery.&lt;/p&gt;&lt;p&gt;Condition: If daily metric outside day's quantile bounds, then anomaly exists.&lt;/p&gt;&lt;p&gt;Output: Email email with trend image attachment.&lt;/p&gt;" style="text;html=1;strokeColor=none;fillColor=none;spacing=5;spacingTop=-20;whiteSpace=wrap;overflow=hidden;rounded=0;" parent="1" vertex="1">
                    <mxGeometry x="25" y="20" width="315" height="180" as="geometry"/>
                </mxCell>
                <mxCell id="19" value="" style="edgeStyle=none;html=1;" parent="1" source="6" target="7" edge="1">
                    <mxGeometry relative="1" as="geometry"/>
                </mxCell>
                <mxCell id="6" value="get_data_from_bq" style="shape=process;whiteSpace=wrap;html=1;backgroundOutline=1;" parent="1" vertex="1">
                    <mxGeometry x="255" y="505" width="120" height="60" as="geometry"/>
                </mxCell>
                <mxCell id="20" value="" style="edgeStyle=none;html=1;" parent="1" source="7" target="8" edge="1">
                    <mxGeometry relative="1" as="geometry"/>
                </mxCell>
                <mxCell id="7" value="format_data" style="shape=process;whiteSpace=wrap;html=1;backgroundOutline=1;" parent="1" vertex="1">
                    <mxGeometry x="475" y="505" width="120" height="60" as="geometry"/>
                </mxCell>
                <mxCell id="21" value="" style="edgeStyle=none;html=1;" parent="1" source="8" target="10" edge="1">
                    <mxGeometry relative="1" as="geometry"/>
                </mxCell>
                <mxCell id="8" value="classify_anomaly" style="shape=process;whiteSpace=wrap;html=1;backgroundOutline=1;" parent="1" vertex="1">
                    <mxGeometry x="695" y="505" width="120" height="60" as="geometry"/>
                </mxCell>
                <mxCell id="23" value="" style="edgeStyle=none;html=1;" parent="1" source="10" target="11" edge="1">
                    <mxGeometry relative="1" as="geometry"/>
                </mxCell>
                <mxCell id="31" value="" style="edgeStyle=none;html=1;" parent="1" source="10" target="17" edge="1">
                    <mxGeometry relative="1" as="geometry"/>
                </mxCell>
                <mxCell id="10" value="day_is_anomaly" style="rhombus;whiteSpace=wrap;html=1;" parent="1" vertex="1">
                    <mxGeometry x="925" y="470" width="130" height="130" as="geometry"/>
                </mxCell>
                <mxCell id="11" value="end_dag" style="ellipse;whiteSpace=wrap;html=1;aspect=fixed;" parent="1" vertex="1">
                    <mxGeometry x="1145" y="495" width="80" height="80" as="geometry"/>
                </mxCell>
                <mxCell id="13" value="&lt;h1&gt;Requirements&lt;/h1&gt;&lt;p&gt;Storage:&lt;/p&gt;&lt;p&gt;gs://anom_visualizations&lt;/p&gt;&lt;p&gt;Packages:&lt;/p&gt;&lt;p&gt;plotly &amp;gt;= 5.6.0&lt;/p&gt;&lt;p&gt;kaleido &amp;gt;= 0.2.1&lt;/p&gt;" style="text;html=1;strokeColor=none;fillColor=none;spacing=5;spacingTop=-20;whiteSpace=wrap;overflow=hidden;rounded=0;" parent="1" vertex="1">
                    <mxGeometry x="410" y="20" width="210" height="215" as="geometry"/>
                </mxCell>
                <mxCell id="14" value="/anomaly_visualizations" style="shape=cylinder3;whiteSpace=wrap;html=1;boundedLbl=1;backgroundOutline=1;size=15;" parent="1" vertex="1">
                    <mxGeometry x="1075" y="692" width="140" height="90" as="geometry"/>
                </mxCell>
                <mxCell id="15" value="&lt;h1&gt;Environment Variables&lt;/h1&gt;&lt;div&gt;ANOM_EMAIL_FROM: email sender address&lt;/div&gt;&lt;div&gt;&lt;br&gt;&lt;/div&gt;&lt;div&gt;ANOM_EMAIL_FROM_PW: email sender password&lt;/div&gt;&lt;div&gt;&lt;br&gt;&lt;/div&gt;&lt;div&gt;ANOM_EMAIL_TO: email recipient address&lt;/div&gt;" style="text;html=1;strokeColor=none;fillColor=none;spacing=5;spacingTop=-20;whiteSpace=wrap;overflow=hidden;rounded=0;" parent="1" vertex="1">
                    <mxGeometry x="620" y="20" width="300" height="220" as="geometry"/>
                </mxCell>
                <mxCell id="25" value="" style="edgeStyle=none;html=1;" parent="1" edge="1">
                    <mxGeometry relative="1" as="geometry">
                        <mxPoint x="989.156712962963" y="710" as="sourcePoint"/>
                        <mxPoint x="989.6563888888891" y="753" as="targetPoint"/>
                    </mxGeometry>
                </mxCell>
                <mxCell id="17" value="gcs_create_store_visualization" style="shape=process;whiteSpace=wrap;html=1;backgroundOutline=1;" parent="1" vertex="1">
                    <mxGeometry x="902.5" y="642" width="172.5" height="70" as="geometry"/>
                </mxCell>
                <mxCell id="18" value="send_alert" style="shape=process;whiteSpace=wrap;html=1;backgroundOutline=1;" parent="1" vertex="1">
                    <mxGeometry x="906.88" y="755" width="166.25" height="60" as="geometry"/>
                </mxCell>
                <mxCell id="26" value="&lt;div style=&quot;color: rgb(204, 204, 204); background-color: rgb(31, 31, 31); font-family: Menlo, Monaco, &amp;quot;Courier New&amp;quot;, monospace; line-height: 18px;&quot;&gt;&lt;span style=&quot;color: #ce9178;&quot;&gt;&amp;nbsp;bq_data_key&lt;/span&gt;&lt;/div&gt;" style="shape=step;perimeter=stepPerimeter;whiteSpace=wrap;html=1;fixedSize=1;" parent="1" vertex="1">
                    <mxGeometry x="375" y="425" width="120" height="80" as="geometry"/>
                </mxCell>
                <mxCell id="27" value="&lt;div style=&quot;color: rgb(204, 204, 204); background-color: rgb(31, 31, 31); font-family: Menlo, Monaco, &amp;quot;Courier New&amp;quot;, monospace; line-height: 18px;&quot;&gt;&lt;span style=&quot;color: #ce9178;&quot;&gt;&amp;nbsp;data_formated_key&lt;/span&gt;&lt;/div&gt;" style="shape=step;perimeter=stepPerimeter;whiteSpace=wrap;html=1;fixedSize=1;" parent="1" vertex="1">
                    <mxGeometry x="595" y="425" width="120" height="80" as="geometry"/>
                </mxCell>
                <mxCell id="28" value="&lt;div style=&quot;color: rgb(204, 204, 204); background-color: rgb(31, 31, 31); font-family: Menlo, Monaco, &amp;quot;Courier New&amp;quot;, monospace; line-height: 18px;&quot;&gt;&lt;span style=&quot;color: #ce9178;&quot;&gt;&amp;nbsp;data_anomaly_key&lt;/span&gt;&lt;/div&gt;" style="shape=step;perimeter=stepPerimeter;whiteSpace=wrap;html=1;fixedSize=1;rotation=45;" parent="1" vertex="1">
                    <mxGeometry x="795" y="555" width="120" height="80" as="geometry"/>
                </mxCell>
                <mxCell id="30" value="(xcom)" style="text;html=1;strokeColor=none;fillColor=none;align=center;verticalAlign=middle;whiteSpace=wrap;rounded=0;" parent="1" vertex="1">
                    <mxGeometry x="375" y="395" width="60" height="30" as="geometry"/>
                </mxCell>
            </root>
        </mxGraphModel>
    </diagram>
</mxfile>